<svg width="62" height="60" viewBox="0 0 62 60" fill="none" xmlns="http://www.w3.org/2000/svg">
<path fill-rule="evenodd" clip-rule="evenodd" d="M30.9999 5C21.0023 5 12.9165 12.825 12.9165 22.5C12.9165 35.625 30.9999 55 30.9999 55C30.9999 55 49.0832 35.625 49.0832 22.5C49.0832 12.825 40.9974 5 30.9999 5ZM18.0835 22.4997C18.0835 15.5999 23.8701 10 31.0001 10C38.1301 10 43.9168 15.5999 43.9168 22.4997C43.9168 29.6996 36.4768 40.4744 31.0001 47.1992C25.6268 40.5244 18.0835 29.6246 18.0835 22.4997Z" fill="#6056DD"/>
<path fill-rule="evenodd" clip-rule="evenodd" d="M30.9998 28.75C34.5666 28.75 37.4581 25.9518 37.4581 22.5C37.4581 19.0482 34.5666 16.25 30.9998 16.25C27.433 16.25 24.5415 19.0482 24.5415 22.5C24.5415 25.9518 27.433 28.75 30.9998 28.75Z" fill="#6056DD"/>
</svg>
